<svg width="24" height="24" viewBox="0 0 24 24" fill="none" xmlns="http://www.w3.org/2000/svg">
<g id="icon/green/upload">
<path id="Shape" fill-rule="evenodd" clip-rule="evenodd" d="M11.6076 4.165C11.8243 3.945 12.1765 3.945 12.3932 4.165L16.8375 8.67775C17.0542 8.89775 17.0542 9.25539 16.8375 9.47538C16.6208 9.69538 16.2686 9.69538 16.052 9.47538L12.5554 5.9261V18.4359C12.5554 18.7473 12.3076 19 11.9999 19C11.6932 19 11.4443 18.7473 11.4443 18.4359V5.9261L7.94886 9.47538C7.7322 9.69538 7.37999 9.69538 7.16333 9.47538C7.05444 9.36482 7 9.22041 7 9.07713C7 8.93273 7.05444 8.78832 7.16333 8.67775L11.6076 4.165Z" fill="#4CB649"/>
</g>
</svg>
